<svg width="41" height="41" viewBox="0 0 41 41" fill="none" xmlns="http://www.w3.org/2000/svg">
<circle cx="20.2242" cy="20.5533" r="20.0426" fill="#DBD9EE"/>
<path d="M24.6166 11.185C21.7151 10.6985 18.7371 10.6985 15.8356 11.185C14.7755 11.3627 13.9313 12.1765 13.7188 13.2317C12.7451 18.0657 12.692 23.0399 13.5622 27.8936L13.9165 29.8697C14.0258 30.4791 14.7686 30.7226 15.2174 30.2962L19.4941 26.2334C19.9043 25.8437 20.5479 25.8437 20.9582 26.2334L25.2348 30.2963C25.6836 30.7226 26.4265 30.4791 26.5357 29.8697L26.89 27.8936C27.7603 23.0399 27.7071 18.0657 26.7334 13.2317C26.5209 12.1765 25.6767 11.3627 24.6166 11.185Z" fill="#6C5FBC"/>
</svg>
