<svg width="209" height="206" viewBox="0 0 209 206" fill="none" xmlns="http://www.w3.org/2000/svg">
<rect x="1.13892" y="0.228763" width="206.709" height="205.202" rx="16.6204" fill="white" stroke="#EDF2F7" stroke-width="0.277838"/>
<path d="M83.8761 184.147V184.618H80.6137V184.28L82.6356 181.151H83.1039L82.6015 182.056L81.2649 184.147H83.8761ZM83.2466 181.151V185.666H82.6729V181.151H83.2466ZM85.7678 185.666H84.8251L84.8313 185.179H85.7678C86.0904 185.179 86.3591 185.112 86.5741 184.978C86.7892 184.841 86.9504 184.651 87.0579 184.407C87.1675 184.161 87.2223 183.874 87.2223 183.545V183.269C87.2223 183.011 87.1913 182.781 87.1293 182.581C87.0672 182.378 86.9763 182.207 86.8564 182.069C86.7364 181.928 86.5897 181.822 86.416 181.749C86.2444 181.677 86.0469 181.641 85.8237 181.641H84.8065V181.151H85.8237C86.1193 181.151 86.3891 181.201 86.6331 181.3C86.877 181.397 87.0869 181.539 87.2626 181.725C87.4404 181.909 87.5769 182.132 87.672 182.395C87.7671 182.655 87.8146 182.949 87.8146 183.275V183.545C87.8146 183.872 87.7671 184.166 87.672 184.429C87.5769 184.689 87.4394 184.912 87.2595 185.096C87.0817 185.28 86.8667 185.421 86.6145 185.521C86.3643 185.618 86.0821 185.666 85.7678 185.666ZM85.1445 181.151V185.666H84.546V181.151H85.1445Z" fill="#828282"/>
<path d="M115.52 184.198L115.061 184.08L115.287 181.832H117.604V182.362H115.774L115.638 183.59C115.721 183.543 115.825 183.498 115.951 183.457C116.079 183.416 116.226 183.395 116.391 183.395C116.6 183.395 116.787 183.431 116.953 183.504C117.118 183.574 117.259 183.675 117.374 183.808C117.492 183.94 117.582 184.099 117.644 184.285C117.706 184.471 117.737 184.679 117.737 184.908C117.737 185.126 117.707 185.325 117.647 185.507C117.589 185.689 117.502 185.848 117.384 185.985C117.266 186.119 117.117 186.223 116.937 186.298C116.759 186.372 116.55 186.409 116.308 186.409C116.126 186.409 115.953 186.385 115.79 186.335C115.628 186.283 115.484 186.206 115.356 186.102C115.229 185.997 115.126 185.867 115.045 185.712C114.967 185.555 114.917 185.371 114.897 185.16H115.442C115.467 185.329 115.517 185.472 115.591 185.588C115.666 185.703 115.763 185.791 115.883 185.851C116.005 185.909 116.146 185.938 116.308 185.938C116.444 185.938 116.565 185.914 116.67 185.867C116.776 185.819 116.865 185.751 116.937 185.662C117.01 185.573 117.064 185.466 117.102 185.34C117.141 185.213 117.16 185.072 117.16 184.915C117.16 184.772 117.141 184.64 117.102 184.518C117.062 184.396 117.003 184.289 116.925 184.198C116.848 184.107 116.754 184.037 116.643 183.987C116.531 183.936 116.403 183.91 116.258 183.91C116.066 183.91 115.92 183.936 115.821 183.987C115.724 184.039 115.623 184.109 115.52 184.198ZM119.738 186.347H118.795L118.801 185.861H119.738C120.06 185.861 120.329 185.793 120.544 185.659C120.759 185.522 120.92 185.332 121.028 185.088C121.137 184.842 121.192 184.555 121.192 184.226V183.95C121.192 183.692 121.161 183.462 121.099 183.262C121.037 183.059 120.946 182.889 120.826 182.75C120.706 182.609 120.559 182.503 120.386 182.431C120.214 182.358 120.017 182.322 119.793 182.322H118.776V181.832H119.793C120.089 181.832 120.359 181.882 120.603 181.981C120.847 182.078 121.057 182.22 121.232 182.406C121.41 182.59 121.547 182.813 121.642 183.076C121.737 183.336 121.784 183.63 121.784 183.956V184.226C121.784 184.553 121.737 184.847 121.642 185.11C121.547 185.371 121.409 185.593 121.229 185.777C121.051 185.961 120.836 186.102 120.584 186.202C120.334 186.299 120.052 186.347 119.738 186.347ZM119.114 181.832V186.347H118.516V181.832H119.114Z" fill="#828282"/>
<path d="M150.966 181.826H151.016V182.313H150.966C150.662 182.313 150.408 182.362 150.203 182.462C149.999 182.559 149.836 182.69 149.716 182.855C149.597 183.019 149.51 183.203 149.456 183.407C149.404 183.612 149.378 183.82 149.378 184.031V184.694C149.378 184.895 149.402 185.073 149.45 185.228C149.497 185.381 149.562 185.51 149.645 185.616C149.728 185.721 149.821 185.801 149.924 185.854C150.03 185.908 150.139 185.935 150.253 185.935C150.385 185.935 150.503 185.91 150.607 185.861C150.71 185.809 150.797 185.738 150.867 185.647C150.939 185.554 150.994 185.444 151.031 185.318C151.069 185.192 151.087 185.053 151.087 184.902C151.087 184.768 151.071 184.639 151.038 184.515C151.005 184.388 150.954 184.277 150.886 184.18C150.817 184.08 150.732 184.003 150.628 183.947C150.527 183.889 150.406 183.86 150.265 183.86C150.106 183.86 149.957 183.9 149.819 183.978C149.682 184.055 149.57 184.156 149.481 184.282C149.394 184.406 149.344 184.541 149.332 184.688L149.028 184.685C149.057 184.454 149.111 184.256 149.189 184.093C149.27 183.927 149.369 183.793 149.487 183.69C149.607 183.584 149.74 183.508 149.887 183.46C150.036 183.411 150.193 183.386 150.358 183.386C150.584 183.386 150.778 183.428 150.941 183.513C151.105 183.598 151.239 183.711 151.345 183.854C151.45 183.995 151.528 184.154 151.577 184.332C151.629 184.507 151.655 184.688 151.655 184.874C151.655 185.087 151.625 185.287 151.565 185.473C151.505 185.659 151.415 185.822 151.295 185.963C151.177 186.103 151.031 186.213 150.858 186.292C150.684 186.37 150.482 186.409 150.253 186.409C150.009 186.409 149.796 186.36 149.614 186.261C149.432 186.159 149.281 186.025 149.161 185.857C149.041 185.69 148.952 185.504 148.892 185.299C148.832 185.095 148.802 184.887 148.802 184.676V184.406C148.802 184.088 148.834 183.775 148.898 183.47C148.962 183.164 149.072 182.886 149.23 182.638C149.389 182.39 149.609 182.193 149.89 182.046C150.171 181.899 150.53 181.826 150.966 181.826ZM153.708 186.347H152.765L152.771 185.861H153.708C154.03 185.861 154.299 185.793 154.514 185.659C154.729 185.522 154.89 185.332 154.998 185.088C155.107 184.842 155.162 184.555 155.162 184.226V183.95C155.162 183.692 155.131 183.462 155.069 183.262C155.007 183.059 154.916 182.889 154.796 182.75C154.676 182.609 154.53 182.503 154.356 182.431C154.184 182.358 153.987 182.322 153.764 182.322H152.746V181.832H153.764C154.059 181.832 154.329 181.882 154.573 181.981C154.817 182.078 155.027 182.22 155.202 182.406C155.38 182.59 155.517 182.813 155.612 183.076C155.707 183.336 155.755 183.63 155.755 183.956V184.226C155.755 184.553 155.707 184.847 155.612 185.11C155.517 185.371 155.379 185.593 155.199 185.777C155.022 185.961 154.807 186.102 154.554 186.202C154.304 186.299 154.022 186.347 153.708 186.347ZM153.084 181.832V186.347H152.486V181.832H153.084Z" fill="#828282"/>
<path d="M183.089 181.832V182.155L181.219 186.347H180.614L182.481 182.303H180.037V181.832H183.089ZM185.114 186.347H184.171L184.178 185.861H185.114C185.437 185.861 185.705 185.793 185.92 185.659C186.135 185.522 186.297 185.332 186.404 185.088C186.514 184.842 186.569 184.555 186.569 184.226V183.95C186.569 183.692 186.538 183.462 186.475 183.262C186.413 183.059 186.322 182.889 186.203 182.75C186.083 182.609 185.936 182.503 185.762 182.431C185.591 182.358 185.393 182.322 185.17 182.322H184.153V181.832H185.17C185.466 181.832 185.735 181.882 185.979 181.981C186.223 182.078 186.433 182.22 186.609 182.406C186.787 182.59 186.923 182.813 187.018 183.076C187.113 183.336 187.161 183.63 187.161 183.956V184.226C187.161 184.553 187.113 184.847 187.018 185.11C186.923 185.371 186.786 185.593 186.606 185.777C186.428 185.961 186.213 186.102 185.961 186.202C185.711 186.299 185.428 186.347 185.114 186.347ZM184.491 181.832V186.347H183.892V181.832H184.491Z" fill="#828282"/>
<rect x="30.2422" y="174.903" width="27.7739" height="19.6592" rx="9.82962" fill="#E7E7E7" fill-opacity="0.92"/>
<path d="M42.8468 185.954V186.652H39.758V186.056L41.2187 184.49C41.3654 184.327 41.4812 184.183 41.566 184.059C41.6508 183.933 41.7117 183.82 41.749 183.721C41.7882 183.62 41.8079 183.524 41.8079 183.433C41.8079 183.296 41.7851 183.179 41.7397 183.082C41.6942 182.983 41.627 182.906 41.5381 182.853C41.4512 182.799 41.3437 182.772 41.2156 182.772C41.0791 182.772 40.9613 182.805 40.862 182.871C40.7648 182.937 40.6904 183.029 40.6387 183.147C40.5891 183.265 40.5643 183.398 40.5643 183.547H39.6681C39.6681 183.279 39.7322 183.033 39.8603 182.809C39.9885 182.584 40.1694 182.405 40.403 182.273C40.6367 182.138 40.9137 182.071 41.2342 182.071C41.5505 182.071 41.8172 182.123 42.0343 182.226C42.2534 182.328 42.4188 182.474 42.5305 182.667C42.6442 182.857 42.701 183.084 42.701 183.349C42.701 183.498 42.6772 183.643 42.6297 183.786C42.5821 183.927 42.5139 184.067 42.425 184.208C42.3382 184.346 42.2327 184.487 42.1087 184.63C41.9846 184.772 41.8472 184.92 41.6962 185.073L40.9116 185.954H42.8468ZM44.8843 186.652H43.9012L43.9074 185.926H44.8843C45.1282 185.926 45.3339 185.871 45.5014 185.762C45.6689 185.65 45.795 185.488 45.8797 185.275C45.9666 185.062 46.01 184.804 46.01 184.502V184.282C46.01 184.051 45.9852 183.847 45.9356 183.671C45.888 183.496 45.8167 183.348 45.7216 183.228C45.6265 183.108 45.5097 183.018 45.3711 182.958C45.2326 182.896 45.0734 182.865 44.8936 182.865H43.8826V182.136H44.8936C45.1954 182.136 45.4714 182.188 45.7216 182.291C45.9738 182.393 46.1919 182.538 46.3759 182.729C46.5599 182.919 46.7015 183.146 46.8008 183.411C46.9021 183.673 46.9527 183.966 46.9527 184.289V184.502C46.9527 184.823 46.9021 185.115 46.8008 185.38C46.7015 185.645 46.5599 185.872 46.3759 186.062C46.194 186.251 45.9759 186.396 45.7216 186.5C45.4693 186.601 45.1902 186.652 44.8843 186.652ZM44.4284 182.136V186.652H43.498V182.136H44.4284Z" fill="#151515"/>
<path d="M1.07401 144.672C12.144 144.672 13.2153 159.085 24.9995 159.085C36.7837 159.085 33.9269 118.121 44.9969 118.121C56.067 118.121 49.9963 83.6059 65.3515 83.6059C80.7067 83.6059 73.5647 118.121 87.4915 118.121C101.418 118.121 99.2757 77.83 108.203 77.83C117.131 77.83 114.631 101.812 125.344 101.812C136.057 101.812 131.057 62.2561 142.484 62.2561C153.912 62.2561 152.84 79.5228 163.196 79.5228C173.552 79.5228 174.623 99.5361 188.907 99.5361C203.191 99.5361 194.264 121.843 207.833 121.843" stroke="#6C5FBC" stroke-width="1.98779" stroke-linecap="round" stroke-linejoin="round"/>
<path d="M176.583 86.9434C176.583 89.0521 174.993 90.6427 173.173 90.6427C171.352 90.6427 169.762 89.0521 169.762 86.9434C169.762 84.8347 171.352 83.2441 173.173 83.2441C174.993 83.2441 176.583 84.8347 176.583 86.9434Z" fill="#C5BFED" stroke="#6C5FBC" stroke-width="2.22012"/>
<rect x="172.555" y="65.0461" width="25.6489" height="11.9084" rx="5.95422" fill="#6C5FBC"/>
<path d="M181.199 71.7626C181.199 71.955 181.149 72.1363 181.049 72.3065C180.953 72.473 180.808 72.6118 180.616 72.7228C180.427 72.8301 180.203 72.893 179.944 72.9115V73.361H179.589V72.9059C179.219 72.8726 178.921 72.7616 178.695 72.5729C178.47 72.3805 178.353 72.1215 178.346 71.7959H179.178C179.201 72.0623 179.337 72.2232 179.589 72.2787V71.2186C179.323 71.152 179.108 71.0854 178.945 71.0188C178.782 70.9522 178.642 70.8449 178.523 70.6969C178.405 70.5489 178.346 70.3472 178.346 70.0919C178.346 69.77 178.461 69.5073 178.69 69.3038C178.923 69.1003 179.223 68.9837 179.589 68.9541V68.5045H179.944V68.9541C180.3 68.9837 180.583 69.091 180.794 69.276C181.008 69.461 181.128 69.7164 181.154 70.042H180.316C180.305 69.9347 180.266 69.8422 180.2 69.7645C180.137 69.6831 180.052 69.6257 179.944 69.5924V70.6414C180.222 70.7117 180.44 70.7802 180.599 70.8468C180.762 70.9097 180.903 71.0151 181.021 71.1631C181.139 71.3074 181.199 71.5073 181.199 71.7626ZM179.156 70.0531C179.156 70.1752 179.193 70.2751 179.267 70.3528C179.341 70.4268 179.448 70.4878 179.589 70.536V69.5758C179.456 69.5943 179.35 69.6442 179.273 69.7256C179.195 69.807 179.156 69.9162 179.156 70.0531ZM179.944 72.2898C180.085 72.2639 180.194 72.2066 180.272 72.1178C180.353 72.029 180.394 71.9217 180.394 71.7959C180.394 71.6738 180.355 71.5757 180.277 71.5017C180.2 71.4277 180.089 71.3666 179.944 71.3185V72.2898ZM181.944 72.09V71.4795L183.759 68.882H184.664V71.4129H185.152V72.09H184.664V72.8782H183.887V72.09H181.944ZM183.937 69.7145L182.799 71.4129H183.937V69.7145ZM185.647 70.8024C185.647 70.1622 185.762 69.6609 185.991 69.2982C186.224 68.9356 186.609 68.7543 187.145 68.7543C187.682 68.7543 188.065 68.9356 188.294 69.2982C188.527 69.6609 188.644 70.1622 188.644 70.8024C188.644 71.4462 188.527 71.9513 188.294 72.3176C188.065 72.6839 187.682 72.8671 187.145 72.8671C186.609 72.8671 186.224 72.6839 185.991 72.3176C185.762 71.9513 185.647 71.4462 185.647 70.8024ZM187.878 70.8024C187.878 70.5286 187.86 70.2991 187.823 70.1141C187.789 69.9254 187.719 69.7719 187.612 69.6535C187.508 69.535 187.353 69.4758 187.145 69.4758C186.938 69.4758 186.781 69.535 186.674 69.6535C186.57 69.7719 186.5 69.9254 186.463 70.1141C186.429 70.2991 186.413 70.5286 186.413 70.8024C186.413 71.0836 186.429 71.3204 186.463 71.5128C186.496 71.7015 186.566 71.8551 186.674 71.9735C186.781 72.0882 186.938 72.1455 187.145 72.1455C187.353 72.1455 187.51 72.0882 187.617 71.9735C187.725 71.8551 187.795 71.7015 187.828 71.5128C187.861 71.3204 187.878 71.0836 187.878 70.8024ZM190.134 71.7404C190.164 71.9032 190.23 72.029 190.334 72.1178C190.441 72.2029 190.584 72.2454 190.761 72.2454C190.991 72.2454 191.157 72.1511 191.261 71.9624C191.364 71.77 191.416 71.448 191.416 70.9966C191.331 71.115 191.211 71.2075 191.056 71.2741C190.904 71.3407 190.739 71.374 190.562 71.374C190.325 71.374 190.11 71.3259 189.918 71.2297C189.729 71.1298 189.579 70.9837 189.468 70.7913C189.357 70.5952 189.302 70.3583 189.302 70.0808C189.302 69.6701 189.424 69.3445 189.668 69.104C189.912 68.8598 190.245 68.7377 190.667 68.7377C191.192 68.7377 191.562 68.906 191.777 69.2427C191.995 69.5795 192.105 70.0864 192.105 70.7635C192.105 71.2445 192.062 71.6386 191.977 71.9457C191.895 72.2528 191.753 72.486 191.549 72.6451C191.35 72.8042 191.076 72.8837 190.728 72.8837C190.454 72.8837 190.221 72.8319 190.029 72.7283C189.836 72.621 189.688 72.4823 189.585 72.312C189.485 72.1381 189.427 71.9476 189.413 71.7404H190.134ZM190.723 70.7413C190.915 70.7413 191.067 70.6821 191.178 70.5637C191.289 70.4453 191.344 70.2862 191.344 70.0864C191.344 69.8681 191.285 69.6997 191.167 69.5813C191.052 69.4592 190.895 69.3981 190.695 69.3981C190.495 69.3981 190.336 69.461 190.217 69.5869C190.103 69.709 190.045 69.8718 190.045 70.0753C190.045 70.2714 190.101 70.4323 190.212 70.5582C190.327 70.6803 190.497 70.7413 190.723 70.7413Z" fill="white"/>
<line opacity="0.09" x1="1.32794" y1="138.765" x2="207.306" y2="138.765" stroke="#6C5FBC" stroke-width="0.585257" stroke-linecap="round"/>
<line opacity="0.09" x1="2.00961" y1="114.108" x2="207.988" y2="114.108" stroke="#6C5FBC" stroke-width="0.585257" stroke-linecap="round"/>
<line opacity="0.09" x1="1.32772" y1="88.7257" x2="207.306" y2="88.7257" stroke="#6C5FBC" stroke-width="0.585257" stroke-linecap="round"/>
<g clip-path="url(#clip0_0_345)">
<rect x="26.8732" y="13.2773" width="37.9194" height="18.2662" rx="9.13309" fill="#6C5FBC"/>
<path d="M43.1003 19.9863V24.4104H42.5186V21.1115L41.0481 24.4104H40.639L39.1622 21.1051V24.4104H38.5804V19.9863H39.2069L40.8436 23.6432L42.4802 19.9863H43.1003ZM43.8696 22.6459C43.8696 22.2879 43.9421 21.9746 44.087 21.7061C44.2319 21.4333 44.4301 21.2223 44.6816 21.0732C44.9373 20.924 45.2207 20.8494 45.5318 20.8494C45.8387 20.8494 46.1051 20.9155 46.331 21.0476C46.5569 21.1797 46.7252 21.3459 46.836 21.5463V20.9069H47.4242V24.4104H46.836V23.7583C46.721 23.9629 46.5484 24.1334 46.3182 24.2698C46.0923 24.4019 45.8281 24.4679 45.5255 24.4679C45.2143 24.4679 44.933 24.3912 44.6816 24.2378C44.4301 24.0843 44.2319 23.8691 44.087 23.5921C43.9421 23.315 43.8696 22.9996 43.8696 22.6459ZM46.836 22.6523C46.836 22.388 46.7828 22.1579 46.6762 21.9618C46.5697 21.7658 46.4248 21.6166 46.2415 21.5143C46.0625 21.4077 45.8643 21.3545 45.6469 21.3545C45.4296 21.3545 45.2314 21.4056 45.0524 21.5079C44.8733 21.6102 44.7306 21.7594 44.624 21.9554C44.5175 22.1515 44.4642 22.3816 44.4642 22.6459C44.4642 22.9144 44.5175 23.1488 44.624 23.3491C44.7306 23.5452 44.8733 23.6965 45.0524 23.803C45.2314 23.9053 45.4296 23.9565 45.6469 23.9565C45.8643 23.9565 46.0625 23.9053 46.2415 23.803C46.4248 23.6965 46.5697 23.5452 46.6762 23.3491C46.7828 23.1488 46.836 22.9165 46.836 22.6523ZM48.7078 20.338C48.597 20.338 48.5033 20.2996 48.4265 20.2229C48.3498 20.1462 48.3115 20.0524 48.3115 19.9416C48.3115 19.8308 48.3498 19.737 48.4265 19.6603C48.5033 19.5836 48.597 19.5452 48.7078 19.5452C48.8144 19.5452 48.9039 19.5836 48.9764 19.6603C49.0531 19.737 49.0914 19.8308 49.0914 19.9416C49.0914 20.0524 49.0531 20.1462 48.9764 20.2229C48.9039 20.2996 48.8144 20.338 48.7078 20.338ZM48.9891 20.9069V24.4104H48.4074V20.9069H48.9891ZM51.6877 20.843C52.1139 20.843 52.4591 20.973 52.7234 21.233C52.9876 21.4887 53.1197 21.8595 53.1197 22.3454V24.4104H52.5443V22.4285C52.5443 22.079 52.457 21.8126 52.2822 21.6294C52.1075 21.4418 51.8688 21.3481 51.5662 21.3481C51.2593 21.3481 51.0142 21.444 50.831 21.6358C50.652 21.8276 50.5625 22.1067 50.5625 22.4733V24.4104H49.9807V20.9069H50.5625V21.4056C50.6775 21.2266 50.8331 21.0881 51.0292 20.9901C51.2295 20.892 51.449 20.843 51.6877 20.843Z" fill="white"/>
<path d="M83.6843 19.6361L82.3007 24.4104H81.602L80.4923 20.5677L79.3415 24.4104L78.6497 24.4173L77.314 19.6361H77.9784L79.0196 23.6843L80.1704 19.6361H80.869L81.965 23.6706L83.013 19.6361H83.6843ZM87.8599 22.3897C87.8599 22.5084 87.853 22.634 87.8393 22.7664H84.8391C84.8619 23.1363 84.9875 23.4263 85.2158 23.6364C85.4487 23.8419 85.7296 23.9446 86.0584 23.9446C86.3278 23.9446 86.5516 23.883 86.7296 23.7597C86.9123 23.6318 87.0402 23.4628 87.1132 23.2528H87.7845C87.6841 23.6135 87.4831 23.9081 87.1817 24.1364C86.8803 24.3602 86.5059 24.472 86.0584 24.472C85.7022 24.472 85.3825 24.3921 85.0994 24.2323C84.8208 24.0725 84.6016 23.8464 84.4418 23.5542C84.282 23.2573 84.2021 22.9149 84.2021 22.5267C84.2021 22.1385 84.2797 21.7983 84.435 21.5061C84.5902 21.2138 84.8071 20.9901 85.0857 20.8348C85.3688 20.675 85.693 20.5951 86.0584 20.5951C86.4146 20.5951 86.7296 20.6727 87.0036 20.8279C87.2776 20.9832 87.4877 21.1978 87.6338 21.4718C87.7845 21.7413 87.8599 22.0472 87.8599 22.3897ZM87.216 22.2596C87.216 22.0221 87.1635 21.8189 87.0584 21.6499C86.9534 21.4764 86.8096 21.3462 86.6269 21.2595C86.4488 21.1682 86.2502 21.1225 86.031 21.1225C85.7159 21.1225 85.4465 21.223 85.2227 21.4239C85.0035 21.6248 84.8779 21.9034 84.8459 22.2596H87.216ZM92.1761 22.3897C92.1761 22.5084 92.1692 22.634 92.1555 22.7664H89.1553C89.1781 23.1363 89.3037 23.4263 89.532 23.6364C89.7649 23.8419 90.0458 23.9446 90.3746 23.9446C90.644 23.9446 90.8677 23.883 91.0458 23.7597C91.2285 23.6318 91.3564 23.4628 91.4294 23.2528H92.1007C92.0002 23.6135 91.7993 23.9081 91.4979 24.1364C91.1965 24.3602 90.8221 24.472 90.3746 24.472C90.0184 24.472 89.6987 24.3921 89.4156 24.2323C89.137 24.0725 88.9178 23.8464 88.758 23.5542C88.5982 23.2573 88.5183 22.9149 88.5183 22.5267C88.5183 22.1385 88.5959 21.7983 88.7511 21.5061C88.9064 21.2138 89.1233 20.9901 89.4019 20.8348C89.685 20.675 90.0092 20.5951 90.3746 20.5951C90.7307 20.5951 91.0458 20.6727 91.3198 20.8279C91.5938 20.9832 91.8039 21.1978 91.95 21.4718C92.1007 21.7413 92.1761 22.0472 92.1761 22.3897ZM91.5322 22.2596C91.5322 22.0221 91.4797 21.8189 91.3746 21.6499C91.2696 21.4764 91.1258 21.3462 90.9431 21.2595C90.765 21.1682 90.5663 21.1225 90.3472 21.1225C90.0321 21.1225 89.7626 21.223 89.5389 21.4239C89.3197 21.6248 89.1941 21.9034 89.1621 22.2596H91.5322ZM95.1634 24.4104L93.6907 22.7527V24.4104H93.0673V19.3415H93.6907V22.3212L95.136 20.6567H96.0059L94.2387 22.5267L96.0128 24.4104H95.1634ZM97.2844 19.3415V24.4104H96.6611V19.3415H97.2844ZM101.648 20.6567L99.3879 26.1777H98.7441L99.4838 24.3693L97.97 20.6567H98.6619L99.84 23.698L101.005 20.6567H101.648Z" fill="#828282"/>
<path d="M125.083 19.6703V24.4104H124.46V20.8759L122.884 24.4104H122.446L120.864 20.869V24.4104H120.24V19.6703H120.912L122.665 23.5884L124.419 19.6703H125.083ZM127.846 24.472C127.494 24.472 127.175 24.3921 126.887 24.2323C126.604 24.0725 126.38 23.8464 126.216 23.5542C126.056 23.2573 125.976 22.9149 125.976 22.5267C125.976 22.1431 126.058 21.8052 126.223 21.5129C126.391 21.2161 126.62 20.9901 126.907 20.8348C127.195 20.675 127.517 20.5951 127.873 20.5951C128.229 20.5951 128.551 20.675 128.839 20.8348C129.127 20.9901 129.353 21.2138 129.517 21.5061C129.686 21.7983 129.771 22.1385 129.771 22.5267C129.771 22.9149 129.684 23.2573 129.51 23.5542C129.341 23.8464 129.111 24.0725 128.819 24.2323C128.526 24.3921 128.202 24.472 127.846 24.472ZM127.846 23.9241C128.07 23.9241 128.28 23.8715 128.476 23.7665C128.672 23.6615 128.83 23.5039 128.949 23.2939C129.072 23.0838 129.134 22.8281 129.134 22.5267C129.134 22.2253 129.074 21.9696 128.956 21.7595C128.837 21.5495 128.682 21.3942 128.49 21.2937C128.298 21.1887 128.09 21.1362 127.866 21.1362C127.638 21.1362 127.428 21.1887 127.236 21.2937C127.049 21.3942 126.898 21.5495 126.784 21.7595C126.67 21.9696 126.613 22.2253 126.613 22.5267C126.613 22.8327 126.668 23.0907 126.777 23.3007C126.891 23.5108 127.042 23.6683 127.229 23.7734C127.417 23.8738 127.622 23.9241 127.846 23.9241ZM132.488 20.5882C132.944 20.5882 133.314 20.7275 133.597 21.006C133.88 21.28 134.022 21.6773 134.022 22.1979V24.4104H133.406V22.287C133.406 21.9125 133.312 21.6271 133.125 21.4307C132.937 21.2298 132.682 21.1293 132.358 21.1293C132.029 21.1293 131.766 21.2321 131.57 21.4376C131.378 21.6431 131.282 21.9422 131.282 22.3349V24.4104H130.659V20.6567H131.282V21.191C131.405 20.9992 131.572 20.8508 131.782 20.7457C131.997 20.6407 132.232 20.5882 132.488 20.5882ZM135.869 21.1704V23.3829C135.869 23.5656 135.908 23.6957 135.986 23.7734C136.063 23.8464 136.198 23.883 136.39 23.883H136.849V24.4104H136.287C135.94 24.4104 135.68 24.3305 135.506 24.1707C135.333 24.0108 135.246 23.7483 135.246 23.3829V21.1704H134.759V20.6567H135.246V19.7114H135.869V20.6567H136.849V21.1704H135.869ZM138.296 19.3415V24.4104H137.672V19.3415H138.296ZM142.66 20.6567L140.399 26.1777H139.755L140.495 24.3693L138.981 20.6567H139.673L140.851 23.698L142.016 20.6567H142.66Z" fill="#828282"/>
<path d="M164.175 19.6361L162.62 22.6089V24.4104H161.997V22.6089L160.435 19.6361H161.127L162.305 22.0541L163.483 19.6361H164.175ZM168.326 22.3897C168.326 22.5084 168.319 22.634 168.305 22.7664H165.305C165.328 23.1363 165.453 23.4263 165.682 23.6364C165.915 23.8419 166.195 23.9446 166.524 23.9446C166.794 23.9446 167.017 23.883 167.196 23.7597C167.378 23.6318 167.506 23.4628 167.579 23.2528H168.25C168.15 23.6135 167.949 23.9081 167.648 24.1364C167.346 24.3602 166.972 24.472 166.524 24.472C166.168 24.472 165.848 24.3921 165.565 24.2323C165.287 24.0725 165.068 23.8464 164.908 23.5542C164.748 23.2573 164.668 22.9149 164.668 22.5267C164.668 22.1385 164.746 21.7983 164.901 21.5061C165.056 21.2138 165.273 20.9901 165.552 20.8348C165.835 20.675 166.159 20.5951 166.524 20.5951C166.88 20.5951 167.196 20.6727 167.47 20.8279C167.744 20.9832 167.954 21.1978 168.1 21.4718C168.25 21.7413 168.326 22.0472 168.326 22.3897ZM167.682 22.2596C167.682 22.0221 167.629 21.8189 167.524 21.6499C167.419 21.4764 167.275 21.3462 167.093 21.2595C166.915 21.1682 166.716 21.1225 166.497 21.1225C166.182 21.1225 165.912 21.223 165.689 21.4239C165.469 21.6248 165.344 21.9034 165.312 22.2596H167.682ZM168.984 22.5199C168.984 22.1363 169.062 21.8006 169.217 21.5129C169.372 21.2207 169.585 20.9946 169.854 20.8348C170.128 20.675 170.432 20.5951 170.765 20.5951C171.094 20.5951 171.379 20.6658 171.621 20.8074C171.863 20.949 172.044 21.1271 172.162 21.3417V20.6567H172.793V24.4104H172.162V23.7117C172.039 23.9309 171.854 24.1136 171.608 24.2597C171.366 24.4013 171.082 24.472 170.758 24.472C170.425 24.472 170.124 24.3899 169.854 24.2255C169.585 24.0611 169.372 23.8304 169.217 23.5336C169.062 23.2368 168.984 22.8989 168.984 22.5199ZM172.162 22.5267C172.162 22.2436 172.105 21.997 171.991 21.7869C171.877 21.5769 171.722 21.417 171.525 21.3074C171.334 21.1933 171.121 21.1362 170.888 21.1362C170.656 21.1362 170.443 21.191 170.251 21.3006C170.06 21.4102 169.907 21.57 169.792 21.7801C169.678 21.9901 169.621 22.2367 169.621 22.5199C169.621 22.8075 169.678 23.0587 169.792 23.2733C169.907 23.4834 170.06 23.6455 170.251 23.7597C170.443 23.8693 170.656 23.9241 170.888 23.9241C171.121 23.9241 171.334 23.8693 171.525 23.7597C171.722 23.6455 171.877 23.4834 171.991 23.2733C172.105 23.0587 172.162 22.8098 172.162 22.5267ZM174.538 21.2663C174.647 21.0517 174.803 20.885 175.004 20.7663C175.209 20.6476 175.458 20.5882 175.75 20.5882V21.2321H175.586C174.887 21.2321 174.538 21.6111 174.538 22.3692V24.4104H173.915V20.6567H174.538V21.2663ZM177.162 19.3415V24.4104H176.538V19.3415H177.162ZM181.526 20.6567L179.265 26.1777H178.621L179.361 24.3693L177.847 20.6567H178.539L179.717 23.698L180.882 20.6567H181.526Z" fill="#828282"/>
</g>
<defs>
<clipPath id="clip0_0_345">
<rect x="26.8732" y="13.2773" width="159.389" height="18.2662" rx="9.13309" fill="white"/>
</clipPath>
</defs>
</svg>
