<svg width="46" height="30" viewBox="0 0 46 30" fill="none" xmlns="http://www.w3.org/2000/svg">
<path fill-rule="evenodd" clip-rule="evenodd" d="M0.000488208 15.0001C0.000488249 14.0796 0.746678 13.3334 1.66715 13.3334L41.6686 13.3334C42.589 13.3334 43.3352 14.0796 43.3352 15.0001C43.3352 15.9206 42.589 16.6668 41.6686 16.6668L1.66715 16.6668C0.746678 16.6668 0.000488168 15.9206 0.000488208 15.0001Z" fill="#605E5E"/>
<path fill-rule="evenodd" clip-rule="evenodd" d="M31.7115 0.386298C32.4186 -0.202987 33.4696 -0.107467 34.0589 0.599648L44.5776 13.2216C45.4361 14.2518 45.4361 15.7481 44.5776 16.7783L34.0589 29.4002C33.4696 30.1073 32.4186 30.2029 31.7115 29.6136C31.0044 29.0243 30.9089 27.9734 31.4982 27.2662L41.7205 14.9999L31.4982 2.73364C30.9089 2.02652 31.0044 0.975583 31.7115 0.386298Z" fill="#605E5E"/>
</svg>
