<svg width="46" height="30" viewBox="0 0 46 30" fill="none" xmlns="http://www.w3.org/2000/svg">
<path fill-rule="evenodd" clip-rule="evenodd" d="M45.2212 14.9999C45.2212 15.9204 44.475 16.6666 43.5545 16.6666L3.55311 16.6666C2.63264 16.6666 1.88645 15.9204 1.88645 14.9999C1.88645 14.0794 2.63264 13.3332 3.55311 13.3332L43.5545 13.3332C44.475 13.3332 45.2212 14.0794 45.2212 14.9999Z" fill="#CECECE"/>
<path fill-rule="evenodd" clip-rule="evenodd" d="M13.5102 29.6137C12.803 30.203 11.7521 30.1075 11.1628 29.4004L0.644106 16.7784C-0.214377 15.7482 -0.214374 14.2519 0.644107 13.2217L11.1628 0.599771C11.7521 -0.107346 12.803 -0.202866 13.5102 0.386421C14.2173 0.975706 14.3128 2.02665 13.7235 2.73376L3.5012 15.0001L13.7235 27.2664C14.3128 27.9735 14.2173 29.0244 13.5102 29.6137Z" fill="#CECECE"/>
</svg>
