<svg width="1439" height="221" viewBox="0 0 1439 221" fill="none" xmlns="http://www.w3.org/2000/svg">
<rect x="-1" width="1440" height="220.5" fill="#5C4EAE"/>
<mask id="mask0_95_1760" style="mask-type:alpha" maskUnits="userSpaceOnUse" x="-1" y="0" width="1440" height="221">
<rect x="-1" width="1440" height="220.5" fill="#201F1F"/>
</mask>
<g mask="url(#mask0_95_1760)">
<path opacity="0.2" d="M1561.55 -80.845C1538.07 -78.653 1512.57 -78.3093 1489.69 -73.1832C1467.3 -68.1673 1443.73 -59.0675 1424.03 -49.4566C1387.74 -31.7456 1369.15 -6.95128 1352.28 22.6295C1324.45 71.4464 1314.37 122.078 1313.94 175.123C1313.65 210.238 1315 244.997 1318.66 279.998C1319.78 290.684 1319.22 302.9 1327.07 312.127" stroke="#A596FF" stroke-width="4.44874" stroke-linecap="round"/>
<path opacity="0.2" d="M1609 -55.6357C1584.82 -53.3776 1558.56 -53.0235 1534.99 -47.7427C1511.94 -42.5754 1487.65 -33.2008 1467.37 -23.2998C1429.99 -5.05417 1410.84 20.4887 1393.47 50.9625C1364.8 101.253 1354.43 153.413 1353.98 208.059C1353.68 244.235 1355.07 280.042 1358.85 316.1C1360 327.109 1359.42 339.694 1367.5 349.2" stroke="#A596FF" stroke-width="4.44874" stroke-linecap="round"/>
<path opacity="0.2" d="M368.68 577.878C374.051 546.413 381.885 516.817 379.878 482.889C378.444 458.657 372.443 434.809 360.905 412.053C339.393 369.626 311.272 329.18 277.84 296.952C243.679 264.021 210.142 228.188 171.566 202.899C135.7 179.387 97.446 159.962 62.4785 134.41C3.88972 91.5977 -37.5779 23.28 -72.7742 -42.2884C-91.3944 -76.9766 -109.862 -111.901 -127.689 -147.001C-138.875 -169.027 -148.273 -192.647 -162.028 -213.115" stroke="#A596FF" stroke-width="4.01667" stroke-linecap="round"/>
<path opacity="0.2" d="M412.339 566.6C418.134 532.606 426.589 500.633 424.414 463.977C422.861 437.797 416.374 412.03 403.907 387.442C380.662 341.599 350.279 297.895 314.163 263.07C277.257 227.483 241.026 188.764 199.354 161.433C160.61 136.023 119.287 115.028 81.513 87.4144C18.2214 41.1479 -26.5828 -32.6708 -64.6127 -103.518C-84.732 -140.999 -104.687 -178.735 -123.949 -216.661C-136.036 -240.46 -146.191 -265.981 -161.053 -288.097" stroke="#A596FF" stroke-width="4.01667" stroke-linecap="round"/>
</g>
</svg>
