<svg width="51" height="51" viewBox="0 0 51 51" fill="none" xmlns="http://www.w3.org/2000/svg">
<rect x="0.531738" y="0.358673" width="50.2588" height="50.2588" rx="25.1294" fill="#F4F0FF"/>
<path d="M26.352 14.7746L26.3206 14.8479L23.2841 21.8946H20.3C19.588 21.8946 18.9074 22.0412 18.2896 22.303L20.122 17.9263L20.1638 17.8215L20.2371 17.654C20.2581 17.5912 20.279 17.5284 20.3104 17.476C21.6821 14.3034 23.2317 13.581 26.352 14.7746Z" stroke="#936DFF" stroke-width="1.57059" stroke-linecap="round" stroke-linejoin="round"/>
<path d="M31.9956 22.104C31.5244 21.9574 31.0218 21.8946 30.5192 21.8946H23.2841L26.3205 14.8479L26.3519 14.7746C26.509 14.827 26.6556 14.9003 26.8126 14.9631L29.1266 15.9368C30.4145 16.4708 31.315 17.0258 31.8595 17.6959C31.9642 17.8216 32.0479 17.9367 32.1212 18.0728C32.2155 18.2194 32.2888 18.366 32.3306 18.5231C32.3725 18.6173 32.4039 18.7116 32.4249 18.7953C32.7076 19.6748 32.5401 20.7533 31.9956 22.104Z" stroke="#936DFF" stroke-width="1.57059" stroke-linecap="round" stroke-linejoin="round"/>
<path d="M35.6307 27.0045V29.0462C35.6307 29.2557 35.6202 29.4651 35.6098 29.6745C35.4108 33.3287 33.369 35.1715 29.4949 35.1715H21.3279C21.0766 35.1715 20.8253 35.1506 20.5845 35.1192C17.2548 34.8993 15.4748 33.1193 15.2549 29.7897C15.2235 29.5488 15.2026 29.2975 15.2026 29.0462V27.0045C15.2026 24.8999 16.48 23.0885 18.3019 22.3032C18.9301 22.0414 19.6002 21.8948 20.3122 21.8948H30.5315C31.0446 21.8948 31.5472 21.9681 32.0079 22.1042C34.0915 22.743 35.6307 24.6905 35.6307 27.0045Z" stroke="#936DFF" stroke-width="1.57059" stroke-linecap="round" stroke-linejoin="round"/>
<path d="M20.122 17.9263L18.2896 22.303C16.4677 23.0883 15.1903 24.8997 15.1903 27.0043V23.9364C15.1903 20.9627 17.3054 18.4812 20.122 17.9263Z" stroke="#936DFF" stroke-width="1.57059" stroke-linecap="round" stroke-linejoin="round"/>
<path d="M35.6274 23.9359V27.0038C35.6274 24.7002 34.0987 22.7422 32.0046 22.114C32.549 20.7528 32.7061 19.6848 32.4443 18.7948C32.4234 18.7006 32.392 18.6063 32.3501 18.5226C34.2976 19.5278 35.6274 21.5905 35.6274 23.9359Z" stroke="#936DFF" stroke-width="1.57059" stroke-linecap="round" stroke-linejoin="round"/>
</svg>
