<svg width="51" height="51" viewBox="0 0 51 51" fill="none" xmlns="http://www.w3.org/2000/svg">
<rect x="0.531738" y="0.417297" width="50.2588" height="50.2588" rx="25.1294" fill="#F2FDF6"/>
<path d="M30.8962 35.2326H20.4256C17.2844 35.2326 15.1903 33.662 15.1903 29.9973V22.6679C15.1903 19.0032 17.2844 17.4326 20.4256 17.4326H30.8962C34.0374 17.4326 36.1315 19.0032 36.1315 22.6679V29.9973C36.1315 33.662 34.0374 35.2326 30.8962 35.2326Z" stroke="#22C55E" stroke-width="1.57059" stroke-miterlimit="10" stroke-linecap="round" stroke-linejoin="round"/>
<path d="M25.6609 29.4738C27.3957 29.4738 28.8021 28.0674 28.8021 26.3326C28.8021 24.5978 27.3957 23.1914 25.6609 23.1914C23.9261 23.1914 22.5197 24.5978 22.5197 26.3326C22.5197 28.0674 23.9261 29.4738 25.6609 29.4738Z" stroke="#22C55E" stroke-width="1.57059" stroke-miterlimit="10" stroke-linecap="round" stroke-linejoin="round"/>
<path d="M18.855 23.715V28.9503" stroke="#22C55E" stroke-width="1.57059" stroke-miterlimit="10" stroke-linecap="round" stroke-linejoin="round"/>
<path d="M32.4668 23.715V28.9503" stroke="#22C55E" stroke-width="1.57059" stroke-miterlimit="10" stroke-linecap="round" stroke-linejoin="round"/>
</svg>
